<svg width="112" height="32" viewBox="0 0 112 32" fill="none" xmlns="http://www.w3.org/2000/svg">
<g clip-path="url(#clip0_1045_7968)">
<path d="M0.0892944 24.1563H24.2456V-0.0148926H0.0892944V24.1563Z" fill="#D4FF00"/>
<path d="M37.7898 13.4251L43.6986 6.89115H49.8009L43.2819 13.6632L50.5898 24.1563H44.6512L39.8586 17.1907L37.7898 19.3339V24.1563H32.6102V-0.0148926H37.7898V13.4251Z" fill="#F5F5F6"/>
<path d="M57.6744 24.1563H52.4949V-0.0148926H57.6744V24.1563Z" fill="#F5F5F6"/>
<path fill-rule="evenodd" clip-rule="evenodd" d="M59.9219 15.5982C59.9219 14.3082 60.1451 13.0977 60.5916 11.9665C61.0382 10.8453 61.6434 9.858 62.4075 9.00467C63.1616 8.15133 64.0595 7.48156 65.1014 6.99536C66.1333 6.51908 67.2347 6.28094 68.4056 6.28094C69.4177 6.28094 70.3752 6.45955 71.2782 6.81676C72.1712 7.17397 72.9898 7.67505 73.734 8.32001V6.89118H78.9135V24.1563H73.734V22.8763C72.9898 23.5213 72.1712 24.0223 71.2782 24.3796C70.3752 24.7368 69.4177 24.9154 68.4056 24.9154C67.2347 24.9154 66.1333 24.6772 65.1014 24.2009C64.0595 23.7147 63.1616 23.045 62.4075 22.1916C61.6434 21.3383 61.0382 20.351 60.5916 19.2298C60.1451 18.0986 59.9219 16.8881 59.9219 15.5982ZM64.8186 15.5684C64.8186 16.2133 64.9377 16.8285 65.1758 17.414C65.4239 17.9994 65.7563 18.5104 66.173 18.947C66.5799 19.3836 67.0661 19.7309 67.6316 19.9889C68.1972 20.2369 68.7926 20.3609 69.4177 20.3609C70.0329 20.3609 70.6233 20.2369 71.1888 19.9889C71.7544 19.7309 72.2456 19.3836 72.6623 18.947C73.0692 18.5104 73.3966 17.9994 73.6447 17.414C73.8828 16.8285 74.0019 16.2133 74.0019 15.5684C74.0019 14.9433 73.8828 14.343 73.6447 13.7675C73.3966 13.192 73.0692 12.6859 72.6623 12.2493C72.2456 11.8127 71.7544 11.4654 71.1888 11.2075C70.6233 10.9594 70.0329 10.8354 69.4177 10.8354C68.7926 10.8354 68.1972 10.9594 67.6316 11.2075C67.0661 11.4654 66.5799 11.8127 66.173 12.2493C65.7563 12.6859 65.4239 13.192 65.1758 13.7675C64.9377 14.343 64.8186 14.9433 64.8186 15.5684Z" fill="#F5F5F6"/>
<path d="M88.1265 24.4391L80.8037 6.89117H86.1619L90.4037 17.6968L94.6158 6.89117H99.9591L92.2939 26.4335C91.5597 28.2989 90.617 29.698 89.466 30.6307C88.315 31.5634 86.8663 32.0298 85.12 32.0298H83.0809V27.8921H84.5395C85.2936 27.8921 85.9187 27.6788 86.4149 27.2521C86.911 26.8254 87.3426 26.1954 87.7098 25.3619L88.1265 24.4391Z" fill="#F5F5F6"/>
<path d="M111.643 11.1777C110.144 11.1777 109.003 11.5944 108.22 12.4279C107.436 13.2515 107.044 14.3529 107.044 15.7321V24.1563H101.864V6.89115H107.044V8.79627C107.53 7.99255 108.21 7.38231 109.083 6.96557C109.956 6.54883 110.809 6.34045 111.643 6.34045V11.1777Z" fill="#F5F5F6"/>
<path d="M17.2205 5.76001V18.3963H14.6903V15.8661H7.11444V8.27536H9.64467V10.8056H14.6903V8.27536H12.16V5.76001H17.2205Z" fill="#0C111D"/>
</g>
<defs>
<clipPath id="clip0_1045_7968">
<rect width="111.628" height="32" fill="white"/>
</clipPath>
</defs>
</svg>